<?xml version="1.0" encoding="utf-8"?>
<!-- Generator: Adobe Illustrator 16.0.0, SVG Export Plug-In . SVG Version: 6.00 Build 0)  -->
<!DOCTYPE svg PUBLIC "-//W3C//DTD SVG 1.1//EN" "http://www.w3.org/Graphics/SVG/1.1/DTD/svg11.dtd">
<svg version="1.1" id="Layer_1" xmlns="http://www.w3.org/2000/svg" xmlns:xlink="http://www.w3.org/1999/xlink" x="0px" y="0px"
	 width="114.5px" height="28.834px" viewBox="0 36.666 114.5 28.834" enable-background="new 0 36.666 114.5 28.834"
	 xml:space="preserve">
<g>
	<g>
		<defs>
			<path id="SVGID_1_" d="M16.016,46.247c0,1.12,0.899,2.028,2.009,2.028c1.11,0,2.011-0.908,2.011-2.028
				c0-1.118-0.9-2.026-2.011-2.026C16.916,44.221,16.016,45.129,16.016,46.247 M21.922,40.255c0,1.121,0.9,2.026,2.01,2.026
				c1.109,0,2.009-0.905,2.009-2.026c0-1.118-0.9-2.028-2.009-2.028C22.822,38.227,21.922,39.137,21.922,40.255"/>
		</defs>
		<clipPath id="SVGID_2_">
			<use xlink:href="#SVGID_1_"  overflow="visible"/>
		</clipPath>
		
			<linearGradient id="SVGID_3_" gradientUnits="userSpaceOnUse" x1="-558.334" y1="439.666" x2="-558.2251" y2="439.666" gradientTransform="matrix(91.3623 0 0 -91.3623 51026.6797 40212.1328)">
			<stop  offset="0" style="stop-color:#2E3191"/>
			<stop  offset="5.029750e-005" style="stop-color:#2E3191"/>
			<stop  offset="0.0074" style="stop-color:#2D3393"/>
			<stop  offset="0.1464" style="stop-color:#1F58AF"/>
			<stop  offset="0.292" style="stop-color:#1477C6"/>
			<stop  offset="0.4438" style="stop-color:#0B8FD7"/>
			<stop  offset="0.6045" style="stop-color:#05A0E4"/>
			<stop  offset="0.7802" style="stop-color:#01AAEC"/>
			<stop  offset="0.9989" style="stop-color:#00ADEE"/>
			<stop  offset="1" style="stop-color:#00ADEE"/>
		</linearGradient>
		<rect x="16.016" y="38.227" clip-path="url(#SVGID_2_)" fill="url(#SVGID_3_)" width="9.925" height="10.049"/>
	</g>
	<g>
		<defs>
			<path id="SVGID_4_" d="M33.277,38.109l-0.018-0.017L18.426,53.059L3.754,38.257c-1.442-0.618-2.702,0.708-2.571,1.769
				c0.204,1.658,1.729,1.934,1.729,1.934l12.092,12.2c1.869,1.886,4.901,1.886,6.771,0l12.247-12.357c0,0,1.344-0.282,1.507-1.877
				c0.092-0.902-0.855-1.906-1.786-1.906C33.586,38.019,33.428,38.047,33.277,38.109"/>
		</defs>
		<clipPath id="SVGID_5_">
			<use xlink:href="#SVGID_4_"  overflow="visible"/>
		</clipPath>
		
			<linearGradient id="SVGID_6_" gradientUnits="userSpaceOnUse" x1="-559.207" y1="442.0254" x2="-559.0972" y2="442.0254" gradientTransform="matrix(0 -160.1558 -160.1558 0 70811.2031 -89504.7813)">
			<stop  offset="0" style="stop-color:#2E3191"/>
			<stop  offset="5.029750e-005" style="stop-color:#2E3191"/>
			<stop  offset="0.0074" style="stop-color:#2D3393"/>
			<stop  offset="0.1464" style="stop-color:#1F58AF"/>
			<stop  offset="0.292" style="stop-color:#1477C6"/>
			<stop  offset="0.4438" style="stop-color:#0B8FD7"/>
			<stop  offset="0.6045" style="stop-color:#05A0E4"/>
			<stop  offset="0.7802" style="stop-color:#01AAEC"/>
			<stop  offset="0.9989" style="stop-color:#00ADEE"/>
			<stop  offset="1" style="stop-color:#00ADEE"/>
		</linearGradient>
		<rect x="1.052" y="37.639" clip-path="url(#SVGID_5_)" fill="url(#SVGID_6_)" width="34.569" height="18.406"/>
	</g>
	<g>
		<rect x="55.729" y="37.859" fill="#FFFFFF" width="3.693" height="17.872"/>
		<rect x="97.183" y="42.552" fill="#FFFFFF" width="3.696" height="13.18"/>
		<polygon fill="#FFFFFF" points="97.155,37.887 97.155,41.614 104.969,41.614 104.969,55.731 108.664,55.731 108.664,41.614 
			113.326,41.614 113.326,37.887 		"/>
		<path fill="#FFFFFF" d="M45.333,37.859h-3.136h-3.695v3.755v7.528h3.695v-7.528h3.135c2.781,0,5.035,2.273,5.035,5.079v0.416
			c0,2.804-2.254,5.079-5.035,5.079h-3.135h-3.695v3.543h3.695h3.136c4.811,0,8.711-3.933,8.711-8.788v-0.295
			C54.044,41.795,50.144,37.859,45.333,37.859"/>
		<path fill="#FFFFFF" d="M69.971,45.274v3.728h4.151c0,0-0.251,2.056-1.616,2.803c-0.693,0.336-1.466,0.523-2.281,0.523
			c-2.952,0-5.344-2.446-5.344-5.462c0-3.018,2.392-5.549,5.344-5.462c1.795,0.052,3.259,1.136,3.259,1.136l2.625-2.594
			c-1.577-1.401-3.633-2.253-5.884-2.253c-4.956,0-8.972,4.106-8.972,9.173c0,5.064,4.016,9.171,8.972,9.171
			c1.252,0,2.445-0.264,3.526-0.738c0.467-0.229,3.883-2.045,4.104-6.297v-3.728h-2.521H69.971z"/>
		<path fill="#FFFFFF" d="M87.753,45.274v3.728h4.152c0,0-0.252,2.056-1.616,2.803c-0.691,0.336-1.466,0.523-2.283,0.523
			c-2.949,0-5.341-2.446-5.341-5.462c0-3.018,2.393-5.549,5.341-5.462c1.796,0.052,3.26,1.136,3.26,1.136l2.625-2.594
			c-1.575-1.401-3.631-2.253-5.885-2.253c-4.953,0-8.969,4.106-8.969,9.173c0,5.064,4.016,9.171,8.969,9.171
			c1.253,0,2.446-0.264,3.529-0.738c0.468-0.229,3.884-2.045,4.104-6.297v-3.728h-2.521H87.753z"/>
		<line fill="#FFFFFF" stroke="#00ADEE" stroke-miterlimit="10" x1="72.506" y1="51.805" x2="72.5" y2="51.808"/>
		<g>
			<path fill="#FFFFFF" d="M40.143,59.153c-0.683,0-1.118,0.301-1.118,0.882c0,0.615,0.489,0.813,1.286,1.073
				c0.783,0.253,1.527,0.513,1.527,1.401c0,0.786-0.604,1.278-1.548,1.278c-0.729,0-1.406-0.232-1.862-0.718l0.228-0.26
				c0.416,0.465,1.032,0.649,1.627,0.649c0.857,0,1.192-0.417,1.192-0.937c0-0.663-0.535-0.861-1.313-1.101
				c-0.744-0.226-1.5-0.513-1.5-1.374c0-0.779,0.623-1.224,1.487-1.224c0.583,0,1.159,0.15,1.655,0.649l-0.248,0.246
				C41.154,59.297,40.652,59.153,40.143,59.153z"/>
			<path fill="#FFFFFF" d="M47.295,61.307c0,1.408-0.985,2.481-2.352,2.481s-2.352-1.073-2.352-2.481s0.985-2.481,2.352-2.481
				S47.295,59.898,47.295,61.307z M42.954,61.307c0,1.23,0.817,2.153,1.989,2.153s1.989-0.923,1.989-2.153s-0.817-2.153-1.989-2.153
				S42.954,60.076,42.954,61.307z"/>
			<path fill="#FFFFFF" d="M48.605,61.587v2.112h-0.354v-4.785h2.732v0.342h-2.378v2.003h2.298v0.328H48.605z"/>
			<path fill="#FFFFFF" d="M54.992,58.914v0.342h-1.554v4.443h-0.361v-4.443h-1.555v-0.342H54.992z"/>
			<path fill="#FFFFFF" d="M60.341,63.699h-0.328l-1.366-4.129l-1.373,4.129h-0.322l-1.434-4.785h0.389l1.213,4.238l1.366-4.102
				h0.321l1.36,4.102l1.219-4.238h0.382L60.341,63.699z"/>
			<path fill="#FFFFFF" d="M66.195,63.699h-0.382l-0.503-1.251h-2.545l-0.503,1.251h-0.382l1.977-4.785h0.361L66.195,63.699z
				 M65.177,62.12l-1.139-2.823l-1.139,2.823H65.177z"/>
			<path fill="#FFFFFF" d="M66.997,58.914h1.701c0.965,0,1.514,0.499,1.514,1.367c0,0.704-0.441,1.313-1.212,1.408l1.333,2.01
				h-0.416l-1.266-1.935h-1.307v1.935h-0.348V58.914z M67.345,61.43h1.367c0.743,0,1.132-0.458,1.132-1.142
				c0-0.67-0.389-1.039-1.199-1.039h-1.3V61.43z"/>
			<path fill="#FFFFFF" d="M73.939,58.914v0.342h-2.385v1.859h2.258v0.321h-2.258v1.921h2.405v0.342H71.2v-4.785H73.939z"/>
			<path fill="#FFFFFF" d="M78.051,59.153c-0.683,0-1.118,0.301-1.118,0.882c0,0.615,0.489,0.813,1.286,1.073
				c0.783,0.253,1.527,0.513,1.527,1.401c0,0.786-0.604,1.278-1.548,1.278c-0.729,0-1.406-0.232-1.862-0.718l0.229-0.26
				c0.415,0.465,1.031,0.649,1.627,0.649c0.857,0,1.192-0.417,1.192-0.937c0-0.663-0.535-0.861-1.313-1.101
				c-0.743-0.226-1.501-0.513-1.501-1.374c0-0.779,0.623-1.224,1.487-1.224c0.583,0,1.159,0.15,1.655,0.649l-0.248,0.246
				C79.063,59.297,78.561,59.153,78.051,59.153z"/>
			<path fill="#FFFFFF" d="M85.203,61.307c0,1.408-0.985,2.481-2.352,2.481S80.5,62.715,80.5,61.307s0.985-2.481,2.352-2.481
				S85.203,59.898,85.203,61.307z M80.862,61.307c0,1.23,0.817,2.153,1.989,2.153s1.989-0.923,1.989-2.153s-0.817-2.153-1.989-2.153
				S80.862,60.076,80.862,61.307z"/>
			<path fill="#FFFFFF" d="M86.514,63.357h2.225v0.342h-2.579v-4.785h0.354V63.357z"/>
			<path fill="#FFFFFF" d="M92.947,61.963c0,1.128-0.663,1.825-1.722,1.825c-1.071,0-1.734-0.697-1.734-1.825v-3.049h0.354v3.001
				c0,0.971,0.496,1.531,1.38,1.531c0.878,0,1.367-0.561,1.367-1.531v-3.001h0.354V61.963z"/>
			<path fill="#FFFFFF" d="M97.178,58.914v0.342h-1.554v4.443h-0.361v-4.443h-1.555v-0.342H97.178z"/>
			<path fill="#FFFFFF" d="M98.307,63.699h-0.355v-4.785h0.355V63.699z"/>
			<path fill="#FFFFFF" d="M103.969,61.307c0,1.408-0.985,2.481-2.352,2.481s-2.352-1.073-2.352-2.481s0.985-2.481,2.352-2.481
				S103.969,59.898,103.969,61.307z M99.628,61.307c0,1.23,0.817,2.153,1.989,2.153s1.989-0.923,1.989-2.153
				s-0.817-2.153-1.989-2.153S99.628,60.076,99.628,61.307z"/>
			<path fill="#FFFFFF" d="M108.381,63.699h-0.314l-2.8-4.163v4.163h-0.342v-4.785h0.314l2.8,4.156v-4.156h0.342V63.699z"/>
			<path fill="#FFFFFF" d="M111.044,59.153c-0.683,0-1.118,0.301-1.118,0.882c0,0.615,0.489,0.813,1.286,1.073
				c0.783,0.253,1.527,0.513,1.527,1.401c0,0.786-0.604,1.278-1.548,1.278c-0.729,0-1.406-0.232-1.862-0.718l0.229-0.26
				c0.415,0.465,1.031,0.649,1.627,0.649c0.857,0,1.192-0.417,1.192-0.937c0-0.663-0.535-0.861-1.313-1.101
				c-0.743-0.226-1.501-0.513-1.501-1.374c0-0.779,0.623-1.224,1.487-1.224c0.583,0,1.159,0.15,1.655,0.649l-0.248,0.246
				C112.056,59.297,111.554,59.153,111.044,59.153z"/>
		</g>
	</g>
</g>
</svg>
